<svg xmlns="http://www.w3.org/2000/svg" xmlns:xlink="http://www.w3.org/1999/xlink" 
version="1.1" x="0px" y="0px" viewBox="0 0 100 100" enable-background="new 0 0 100 100" 
xml:space="preserve" style="max-width:100%" height="100%"><g style="" fill="currentColor">
<path d="M19,28c0-1.1,0.9-2,2-2h58c1.1,0,2,0.9,2,2s-0.9,2-2,2H21C19.9,30,19,29.1,19,28z M21,38h58c1.1,0,2-0.9,2-2s-0.9-2-2-2H21 
  c-1.1,0-2,0.9-2,2S19.9,38,21,38z M21,46h58c1.1,0,2-0.9,2-2s-0.9-2-2-2H21c-1.1,0-2,0.9-2,2S19.9,46,21,46z M95,40v50  
  c0,1.1-0.9,2-2,2H7c-1.1,0-2-0.9-2-2V40c0,0,0,0,0,0v0c0,0,0-0.1,0-0.1c0-0.1,0-0.2,0-0.3c0-0.1,0-0.1,0-0.2c0-0.1,0-0.1,0.1-0.2 
  c0-0.1,0.1-0.1,0.1-0.2c0-0.1,0.1-0.1,0.1-0.2c0-0.1,0.1-0.1,0.1-0.1c0-0.1,0.1-0.1,0.1-0.2c0.1-0.1,0.1-0.1,0.2-0.1  
  c0,0,0.1-0.1,0.1-0.1l5.1-3.6V20c0-1.1,0.9-2,2-2h22l13.8-9.6c0.7-0.5,1.6-0.5,2.3,0L65,18h22c1.1,0,2,0.9,2,2v14.8l5.1,3.6   
  c0,0,0.1,0.1,0.1,0.1c0.1,0,0.1,0.1,0.2,0.1c0,0,0.1,0.1,0.1,0.2c0,0.1,0.1,0.1,0.1,0.2c0,0.1,0.1,0.1,0.1,0.2   
  c0,0.1,0.1,0.1,0.1,0.2c0,0.1,0,0.1,0.1,0.2c0,0.1,0,0.1,0.1,0.2c0,0.1,0,0.2,0,0.2C95,39.9,95,40,95,40z M9,86.2L39.3,65L9,43.8   
  V86.2z M57.2,62.6L69.4,54H30.6l12.3,8.6l6-4.2c0.7-0.5,1.6-0.5,2.3,0L57.2,62.6z M13.4,88h73.3L50,62.4L13.4,88z M91,86.2V43.8   
  L60.7,65L91,86.2z M42,18H58l-8-5.6L42,18z M15,22v21.1l9.8,6.9h50.3l9.8-6.9V22H15z" 
  style="" fill="currentColor"></path></g></svg>